<?xml version="1.0" encoding="UTF-8" ?>
<!DOCTYPE svg PUBLIC "-//W3C//DTD SVG 1.1//EN" "http://www.w3.org/Graphics/SVG/1.1/DTD/svg11.dtd">
<svg width="817pt" height="756pt" viewBox="0 0 817 756" version="1.1" xmlns="http://www.w3.org/2000/svg">
<g id="#89b4faff">
<path fill="#89b4fa" stroke="#89b4fa" stroke-width="0.09375" opacity="1.00" d=" M 211.10 2.05 C 213.19 2.66 215.11 3.76 216.72 5.23 C 239.01 28.28 262.16 50.50 284.96 73.05 C 306.64 94.70 328.53 116.14 350.19 137.82 C 367.21 154.11 383.59 171.08 400.46 187.53 C 403.45 190.50 406.95 193.04 409.35 196.56 C 409.88 198.18 409.79 199.93 409.65 201.61 C 399.91 203.46 389.86 201.32 380.00 202.14 C 327.33 202.40 274.66 202.06 222.00 202.41 C 218.48 202.44 214.87 202.56 211.49 201.45 C 210.87 196.29 211.96 191.10 211.59 185.93 C 210.35 162.30 210.96 138.64 210.88 114.99 C 211.59 104.33 210.53 93.66 211.18 83.00 C 211.10 63.00 211.60 43.01 211.36 23.01 C 211.37 16.02 209.97 9.01 211.10 2.05 Z" />
<path fill="#89b4fa" stroke="#89b4fa" stroke-width="0.09375" opacity="1.00" d=" M 634.98 103.02 C 644.02 100.04 653.49 98.53 662.97 97.80 C 688.79 97.12 715.18 106.00 734.05 123.92 C 741.42 130.24 746.13 139.20 754.18 144.79 C 771.57 156.51 791.70 163.04 811.37 169.75 C 813.91 170.86 815.84 175.18 813.12 177.08 C 808.37 179.40 803.18 180.61 798.21 182.33 C 780.38 187.99 763.73 197.31 749.73 209.74 C 737.84 220.78 728.09 234.25 722.30 249.48 C 717.90 259.71 716.18 270.87 715.65 281.94 C 714.77 294.62 713.08 307.24 711.93 319.90 C 705.16 365.42 692.70 410.47 671.45 451.46 C 653.42 487.73 628.70 520.51 599.96 548.98 C 545.43 602.54 473.91 639.35 397.95 649.67 C 367.83 654.11 337.32 651.52 307.02 652.78 C 303.80 653.18 301.57 650.03 301.84 647.06 C 302.80 624.72 301.70 602.35 302.25 580.00 C 302.63 574.04 301.30 568.09 301.96 562.17 C 303.58 560.68 306.03 559.85 308.09 560.97 C 316.20 564.63 324.93 566.49 333.53 568.61 C 347.07 572.08 361.10 572.68 375.00 573.22 C 387.49 572.57 400.13 572.35 412.34 569.32 C 448.44 561.20 482.12 542.48 507.79 515.79 C 514.87 508.47 521.30 500.55 527.36 492.37 C 533.59 482.71 539.97 473.02 544.24 462.29 C 554.51 440.32 559.29 416.17 560.60 392.06 C 561.29 377.75 558.67 363.60 556.43 349.54 C 552.72 331.46 545.78 314.17 537.03 297.96 C 527.23 281.66 515.67 266.28 501.59 253.41 C 499.71 251.66 497.50 250.20 496.03 248.07 C 494.76 245.23 494.74 241.42 497.15 239.15 C 509.71 225.69 521.53 211.55 533.90 197.91 C 553.84 175.18 573.47 152.17 593.72 129.72 C 604.73 117.30 619.16 108.01 634.98 103.02 M 667.34 151.31 C 658.52 153.21 650.68 160.82 650.28 170.13 C 649.72 181.59 660.86 191.28 671.99 190.74 C 682.72 190.58 692.94 181.90 693.68 171.00 C 692.44 158.78 679.57 148.55 667.34 151.31 Z" />
<path fill="#89b4fa" stroke="#89b4fa" stroke-width="0.09375" opacity="1.00" d=" M 1.16 231.43 C 123.43 231.43 245.72 231.57 368.00 231.36 C 396.01 230.54 424.36 237.19 448.58 251.44 C 487.50 273.15 516.06 312.57 524.30 356.40 C 525.19 362.90 525.98 369.42 526.82 375.94 C 528.60 391.04 526.31 406.15 523.82 421.03 C 516.12 458.24 493.52 491.64 463.16 514.21 C 456.36 519.26 448.86 523.25 441.44 527.31 C 420.46 538.40 396.61 543.34 373.00 543.58 C 352.19 543.22 331.23 539.45 312.23 530.76 C 295.92 523.50 280.54 513.78 267.87 501.13 C 255.14 489.19 243.03 476.63 230.60 464.39 C 212.76 446.56 194.81 428.85 177.07 410.92 C 119.56 354.78 62.42 298.25 5.06 241.93 C 2.18 239.30 -0.30 235.47 1.16 231.43 Z" />
<path fill="#89b4fa" stroke="#89b4fa" stroke-width="0.09375" opacity="1.00" d=" M 262.71 549.74 C 264.15 547.68 266.62 547.19 268.98 547.54 C 269.49 570.69 269.04 593.85 269.19 617.01 C 269.18 660.69 269.14 704.39 269.14 748.07 C 269.28 750.81 268.39 754.39 265.02 754.44 C 201.67 754.39 138.31 754.46 74.95 754.38 C 73.09 754.34 71.21 754.16 69.42 753.63 C 69.24 751.30 68.77 748.46 70.75 746.74 C 96.98 719.65 123.40 692.74 149.77 665.77 C 180.06 634.40 210.87 603.53 241.09 572.08 C 248.43 564.77 256.01 557.66 262.71 549.74 Z" />
</g>
</svg>
